<svg width="181" height="171" viewBox="0 0 181 171" fill="none" xmlns="http://www.w3.org/2000/svg">
<path d="M90.1951 33.6135C108.642 33.6135 125.898 43.5213 135.233 59.4733C136.628 61.8589 139.203 63.3395 141.949 63.3395H162.737C164.528 63.3395 166.203 62.4579 167.22 60.9773C167.719 60.2525 168.034 59.4171 168.137 58.5433C168.24 57.6695 168.129 56.7837 167.814 55.9624C155.31 23.4282 123.505 2.02831 88.6004 2.661C67.0216 3.0655 46.6848 11.7831 31.3395 27.2062C15.9942 42.6293 7.37772 63.0076 7.07693 84.589C6.76577 107.026 15.263 128.175 31.005 144.14C46.7522 160.107 67.771 168.9 90.1951 168.9C124.207 168.9 154.452 148.535 167.243 117.017C167.577 116.195 167.703 115.303 167.611 114.42C167.518 113.538 167.21 112.691 166.714 111.955C166.217 111.215 165.545 110.609 164.759 110.19C163.972 109.771 163.094 109.552 162.202 109.552H141.142C138.438 109.552 135.967 110.929 134.535 113.236C124.78 128.95 107.921 138.186 89.4639 137.929C75.5318 137.737 62.5435 132.212 52.8924 122.369C43.2413 112.526 37.9646 99.4313 38.0372 85.494C38.185 56.8855 61.5841 33.6135 90.1951 33.6135V33.6135Z" fill="url(#paint0_linear_233_859)"/>
<path d="M90.1951 33.6135C108.642 33.6135 125.898 43.5213 135.233 59.4733C136.628 61.8589 139.203 63.3395 141.949 63.3395H162.737C164.528 63.3395 166.203 62.4579 167.22 60.9773C167.719 60.2525 168.034 59.4171 168.137 58.5433C168.24 57.6695 168.129 56.7837 167.814 55.9624C155.31 23.4282 123.505 2.02831 88.6004 2.661C67.0216 3.0655 46.6848 11.7831 31.3395 27.2062C15.9942 42.6293 7.37772 63.0076 7.07693 84.589C6.76577 107.026 15.263 128.175 31.005 144.14C46.7522 160.107 67.771 168.9 90.1951 168.9C124.207 168.9 154.452 148.535 167.243 117.017C167.577 116.195 167.703 115.303 167.611 114.42C167.518 113.538 167.21 112.691 166.714 111.955C166.217 111.215 165.545 110.609 164.759 110.19C163.972 109.771 163.094 109.552 162.202 109.552H141.142C138.438 109.552 135.967 110.929 134.535 113.236C124.78 128.95 107.921 138.186 89.4639 137.929C75.5318 137.737 62.5435 132.212 52.8924 122.369C43.2413 112.526 37.9646 99.4313 38.0372 85.494C38.185 56.8855 61.5841 33.6135 90.1951 33.6135V33.6135Z" stroke="url(#paint1_linear_233_859)" stroke-width="4" stroke-miterlimit="10"/>
<path d="M90.4 86.22H180.4C180.4 83.9045 178.728 82.0686 176.422 81.856L106.764 75.3632C105.19 75.1972 104.073 74.9327 103.373 74.4997H103.344L90.4 86.22Z" fill="url(#paint2_linear_233_859)"/>
<path d="M103.3 97.904C103.961 97.4606 105.045 97.2376 106.617 97.0872L176.422 90.584C178.728 90.3688 180.4 88.5329 180.4 86.22H90.4L103.3 97.904V97.904Z" fill="url(#paint3_linear_233_859)"/>
<path d="M90.4 86.22H0.399994C0.399994 83.9045 2.07247 82.0686 4.37764 81.856L74.0382 75.3632C75.6122 75.1972 76.7298 74.9327 77.4299 74.4997H77.4584L90.4 86.22Z" fill="url(#paint4_linear_233_859)"/>
<path d="M77.4999 97.904C76.8387 97.4606 75.7548 97.2376 74.1834 97.0872L4.37764 90.584C2.07247 90.3688 0.399994 88.5329 0.399994 86.22H90.4L77.4999 97.904V97.904Z" fill="url(#paint5_linear_233_859)"/>
<path d="M90.4 86.22V46.5654C88.6938 46.5654 87.1717 47.6493 86.6142 49.2621L78.1766 73.6985C78.1014 73.9681 77.8577 74.2456 77.4584 74.4945L90.4 86.22V86.22Z" fill="url(#paint6_linear_233_859)"/>
<path d="M102.608 73.6518L94.1858 49.2621C93.9132 48.475 93.4022 47.7923 92.7237 47.309C92.0452 46.8257 91.233 46.5658 90.4 46.5654V86.22L103.342 74.4971V74.4789C102.989 74.2508 102.737 73.9811 102.608 73.6518V73.6518Z" fill="url(#paint7_linear_233_859)"/>
<path d="M77.5206 97.8833C77.7929 98.0674 77.99 98.28 78.1066 98.5445L86.6142 123.175C87.1717 124.788 88.6938 125.872 90.4 125.872V86.22L77.5206 97.8833Z" fill="url(#paint8_linear_233_859)"/>
<path d="M90.4 125.872C92.1062 125.872 93.6283 124.788 94.1858 123.175L102.623 98.7389C102.743 98.3915 102.973 98.1218 103.3 97.904L90.4 86.22V125.872Z" fill="url(#paint9_linear_233_859)"/>
<defs>
<linearGradient id="paint0_linear_233_859" x1="87.6203" y1="166.571" x2="87.6203" y2="-135.339" gradientUnits="userSpaceOnUse">
<stop offset="0.074" stop-color="#B7D3E1"/>
<stop offset="0.102" stop-color="#B0CCDA"/>
<stop offset="0.152" stop-color="#AEC9D8"/>
<stop offset="0.158" stop-color="#B9CFDD"/>
<stop offset="0.173" stop-color="#CDDCE6"/>
<stop offset="0.19" stop-color="#DBE4ED"/>
<stop offset="0.21" stop-color="#E3E9F1"/>
<stop offset="0.243" stop-color="#E6EBF2"/>
<stop offset="0.255" stop-color="#EBEFF4"/>
<stop offset="0.289" stop-color="#F3F5F8"/>
<stop offset="0.344" stop-color="#F6F7F9"/>
<stop offset="0.456" stop-color="#E6EBF2"/>
<stop offset="0.543" stop-color="#AEC9D8"/>
<stop offset="0.621" stop-color="#B7D3E1"/>
<stop offset="0.658" stop-color="#C5DEE5"/>
<stop offset="0.716" stop-color="#B7D3E1"/>
<stop offset="0.764" stop-color="#AEC9D8"/>
<stop offset="0.826" stop-color="#E6EBF2"/>
<stop offset="0.885" stop-color="#F6F7F9"/>
</linearGradient>
<linearGradient id="paint1_linear_233_859" x1="6.54848" y1="85.7725" x2="168.692" y2="85.7725" gradientUnits="userSpaceOnUse">
<stop stop-color="#F1F2F2"/>
<stop offset="0.073" stop-color="white"/>
<stop offset="0.242" stop-color="#C0C2C4"/>
<stop offset="0.369" stop-color="white"/>
<stop offset="0.729" stop-color="#B3B5B8"/>
<stop offset="0.912" stop-color="#F1F2F2"/>
<stop offset="1" stop-color="#F1F2F2"/>
</linearGradient>
<linearGradient id="paint2_linear_233_859" x1="135.4" y1="86.2195" x2="135.4" y2="74.4966" gradientUnits="userSpaceOnUse">
<stop stop-color="#6FC6D9"/>
<stop offset="1" stop-color="#84D7CD"/>
</linearGradient>
<linearGradient id="paint3_linear_233_859" x1="135.4" y1="86.2195" x2="135.4" y2="97.9424" gradientUnits="userSpaceOnUse">
<stop stop-color="#369ABB"/>
<stop offset="1" stop-color="#4ABFD5"/>
</linearGradient>
<linearGradient id="paint4_linear_233_859" x1="45.3995" y1="86.2195" x2="45.3995" y2="74.4966" gradientUnits="userSpaceOnUse">
<stop stop-color="#6FC6D9"/>
<stop offset="1" stop-color="#84D7CD"/>
</linearGradient>
<linearGradient id="paint5_linear_233_859" x1="45.3995" y1="86.2195" x2="45.3995" y2="97.9424" gradientUnits="userSpaceOnUse">
<stop stop-color="#4ABFD5"/>
<stop offset="1" stop-color="#369ABB"/>
</linearGradient>
<linearGradient id="paint6_linear_233_859" x1="83.9287" y1="86.2195" x2="83.9287" y2="38.222" gradientUnits="userSpaceOnUse">
<stop stop-color="#4ABFD5"/>
<stop offset="1" stop-color="#6FC6D9"/>
</linearGradient>
<linearGradient id="paint7_linear_233_859" x1="96.8713" y1="86.2195" x2="96.8713" y2="38.222" gradientUnits="userSpaceOnUse">
<stop stop-color="#6FC6D9"/>
<stop offset="1" stop-color="#84D7CD"/>
</linearGradient>
<linearGradient id="paint8_linear_233_859" x1="83.9608" y1="86.2195" x2="83.9608" y2="134.217" gradientUnits="userSpaceOnUse">
<stop offset="0.001" stop-color="#369ABB"/>
<stop offset="1" stop-color="#4ABFD5"/>
</linearGradient>
<linearGradient id="paint9_linear_233_859" x1="96.8503" y1="86.2195" x2="96.8503" y2="134.217" gradientUnits="userSpaceOnUse">
<stop stop-color="#4ABFD5"/>
<stop offset="1" stop-color="#6FC6D9"/>
</linearGradient>
</defs>
</svg>
