<svg width="69" height="69" viewBox="0 0 69 69" fill="none" xmlns="http://www.w3.org/2000/svg">
<path d="M34.5 68.5C53.2777 68.5 68.5 53.2777 68.5 34.5C68.5 15.7223 53.2777 0.5 34.5 0.5C15.7223 0.5 0.5 15.7223 0.5 34.5C0.5 53.2777 15.7223 68.5 34.5 68.5Z" fill="#141414" stroke="#3B4040"/>
<path d="M21.2953 25.8023C28.588 18.6906 40.4121 18.6906 47.7048 25.8023L48.5825 26.6582C48.9473 27.0137 48.9473 27.5902 48.5825 27.9457L45.5801 30.8737C45.3978 31.0514 45.1023 31.0514 44.9199 30.8737L43.7121 29.6958C38.6244 24.7346 30.3758 24.7346 25.288 29.6958L23.9945 30.9572C23.8121 31.1349 23.5166 31.1349 23.3343 30.9572L20.3319 28.0292C19.9672 27.6737 19.9672 27.0972 20.3319 26.7417L21.2953 25.8023ZM53.9143 31.8574L56.5864 34.4632C56.9511 34.8187 56.9511 35.3952 56.5864 35.7507L44.5373 47.5006C44.1728 47.8563 43.5816 47.8563 43.2169 47.5006L34.6652 39.1615C34.574 39.0725 34.4263 39.0725 34.3351 39.1615L25.7835 47.5006C25.4189 47.8563 24.8277 47.8563 24.463 47.5006L12.4136 35.7506C12.049 35.3951 12.049 34.8185 12.4136 34.463L15.0858 31.8572C15.4505 31.5015 16.0416 31.5015 16.4063 31.8572L24.9581 40.1965C25.0493 40.2854 25.197 40.2854 25.2882 40.1965L33.8397 31.8572C34.2042 31.5015 34.7954 31.5015 35.1601 31.8572L43.7119 40.1965C43.8031 40.2854 43.9509 40.2854 44.0421 40.1965L52.5939 31.8574C52.9584 31.5017 53.5496 31.5017 53.9143 31.8574V31.8574Z" fill="white"/>
</svg>
